<svg id="bar-3945911" xmlns="http://www.w3.org/2000/svg" width="96.153" height="96.154" viewBox="0 0 96.153 96.154">
  <path id="Path_8819" data-name="Path 8819" d="M27,16.106a8.289,8.289,0,0,0,16.578,0V11H27Z" transform="translate(12.788 2.263)" fill="#0b99d6"/>
  <path id="Path_8820" data-name="Path 8820" d="M31.136,12.947,36.109,3H27.82L16.63,12.947Z" transform="translate(5.966 -3)" fill="#0b99d6"/>
  <path id="Path_8821" data-name="Path 8821" d="M15,16.106a8.289,8.289,0,0,0,16.578,0V11H15Z" transform="translate(4.894 2.263)" fill="#0b99d6"/>
  <path id="Path_8822" data-name="Path 8822" d="M42.142,12.947,37.169,3H32.593L27.62,12.947Z" transform="translate(13.196 -3)" fill="#0b99d6"/>
  <path id="Path_8823" data-name="Path 8823" d="M30.428,3H18.74L5.08,12.947H19.238Z" transform="translate(-1.632 -3)" fill="#0b99d6"/>
  <path id="Path_8824" data-name="Path 8824" d="M55.1,12.947,43.909,3H35.62l4.973,9.947Z" transform="translate(18.458 -3)" fill="#0b99d6"/>
  <path id="Path_8825" data-name="Path 8825" d="M68.978,12.947,55.3,3H43.63l11.19,9.947Z" transform="translate(23.727 -3)" fill="#0b99d6"/>
  <path id="Path_8826" data-name="Path 8826" d="M39,16.106a8.289,8.289,0,1,0,16.578,0V11H39Z" transform="translate(20.681 2.263)" fill="#0b99d6"/>
  <path id="Path_8827" data-name="Path 8827" d="M45,61.875h3.316l-1.658-2.2Z" transform="translate(24.628 34.279)" fill="#0b99d6"/>
  <rect id="Rectangle_81" data-name="Rectangle 81" width="70" height="3" transform="translate(13.027 63)" fill="#0b99d6"/>
  <path id="Path_8828" data-name="Path 8828" d="M78.286,17.67a11.6,11.6,0,0,1-19.894,0,11.6,11.6,0,0,1-19.894,0,11.6,11.6,0,0,1-19.894,0,11.6,11.6,0,0,1-9.947,5.653A10.992,10.992,0,0,1,7,23.191v63H21.92l1.658-2.2v-9.4H16.947V71.267a3.316,3.316,0,0,1,3.316-3.316h9.947a3.316,3.316,0,0,1,3.316,3.316v3.316H26.894v9.4l1.658,2.2H45.13l1.658-2.2v-9.4H40.156V71.267a3.316,3.316,0,0,1,3.316-3.316h9.947a3.316,3.316,0,0,1,3.316,3.316v3.316H50.1v9.4l1.658,2.2H68.339L70,83.983v-9.4H63.366V71.267a3.316,3.316,0,0,1,3.316-3.316h9.947a3.316,3.316,0,0,1,3.316,3.316v3.316H73.313v9.4l1.658,2.2h14.92v-63a10.992,10.992,0,0,1-1.658.133,11.6,11.6,0,0,1-9.947-5.653Zm8.289,43.65a1.658,1.658,0,0,1-1.658,1.658H11.973a1.658,1.658,0,0,1-1.658-1.658V54.689a1.658,1.658,0,0,1,1.658-1.658h1.658V28.164a1.658,1.658,0,0,1,1.658-1.658H81.6a1.658,1.658,0,0,1,1.658,1.658V53.031h1.658a1.658,1.658,0,0,1,1.658,1.658Z" transform="translate(-0.369 6.65)" fill="#0b99d6"/>
  <path id="Path_8829" data-name="Path 8829" d="M51,11v5.106a8.289,8.289,0,1,0,16.578,0V11Z" transform="translate(28.575 2.263)" fill="#0b99d6"/>
  <path id="Path_8830" data-name="Path 8830" d="M31,61.875h3.316l-1.658-2.2Z" transform="translate(15.419 34.279)" fill="#0b99d6"/>
  <path id="Path_8831" data-name="Path 8831" d="M19.578,16.106V11H3v5.106a8.289,8.289,0,0,0,16.578,0Z" transform="translate(-3 2.263)" fill="#0b99d6"/>
  <path id="Path_8832" data-name="Path 8832" d="M31.236,48.209h7.875l-1.243-4.973H44.5l-1.243,4.973h9.118L51.13,43.236h6.631l-1.243,4.973h9.118l-1.243-4.973h6.631L69.78,48.209H76V25H13V36.6H31.236Z" transform="translate(3.578 11.472)" fill="#0b99d6"/>
  <path id="Path_8833" data-name="Path 8833" d="M17,61.875h3.316l-1.658-2.2Z" transform="translate(6.209 34.279)" fill="#0b99d6"/>
</svg>
