<svg xmlns="http://www.w3.org/2000/svg" width="50.752" height="54.378" viewBox="0 0 50.752 54.378">
  <path id="Icon_metro-mail-read" data-name="Icon metro-mail-read" d="M37.125,23.679H19V27.3H37.125ZM26.25,16.429H19v3.625h7.25ZM48,14.873V9.178H40.025l-10.15-7.25-10.15,7.25H11.749v5.694L4.5,20.054V56.305H55.251V20.054L48,14.873ZM15.374,12.8h29V26.67l-14.5,11.962L15.374,26.67V12.8ZM8.124,27.3,22.4,38.158,8.124,49.055V27.3ZM11.749,52.68,26.136,41l3.738,2.846L33.606,41,48,52.68H11.749Zm39.877-3.625-14.3-10.879L51.626,27.3V49.055Z" transform="translate(-4.499 -1.928)" fill="#0b99d6"/>
</svg>
