<svg xmlns="http://www.w3.org/2000/svg" width="41.416" height="32.087" viewBox="0 0 41.416 32.087">
  <path id="Icon_simple-minutemailer" data-name="Icon simple-minutemailer" d="M9.6,4.055,15.555,10.5l-4.2,8.28,8.87-1.589,4.038,9.743L41.416,4.439ZM8.5,18.012l1.651-1.358-2.129.673-.217-.311.88-.854-1.154.466A11.754,11.754,0,0,0,3.681,36.142a11.671,11.671,0,0,1-1.527-5.79A12.048,12.048,0,0,1,9.6,19.273l.544-1.322-1.294.571-.364-.492.019-.019Zm7.531-3.4,2.758-4.868,16.218-3.8L16.035,14.612Z" transform="translate(0 -4.055)" fill="#fff"/>
</svg>
