<svg xmlns="http://www.w3.org/2000/svg" width="648.789" height="602.126" viewBox="0 0 648.789 602.126">
  <path id="noun-cruise-2191168" d="M5,501.744V524.2c17.452-4.015,28.431-13.61,38.336-22.369,11.945-10.568,21.381-18.916,41.732-18.916s29.787,8.348,41.732,18.916c12.9,11.4,27.516,24.337,56.063,24.337S226,513.235,238.888,501.824c11.938-10.568,21.367-18.909,41.7-18.909s29.779,8.348,41.717,18.916c12.9,11.4,27.5,24.337,56.034,24.337s43.144-12.932,56.034-24.344c11.938-10.568,21.36-18.909,41.688-18.909s29.758,8.341,41.688,18.909c12.889,11.411,27.487,24.344,56.012,24.344s43.145-12.932,56.034-24.344c7.814-6.9,14.6-12.8,24-16.1V463.271c-17.438,4.015-28.417,13.617-38.307,22.376-11.938,10.568-21.367,18.909-41.7,18.909s-29.743-8.341-41.674-18.909c-12.889-11.411-27.494-24.344-56.026-24.344s-43.13,12.932-56.019,24.344c-.454.4-.894.779-1.341,1.175-82.576-85.59-99.258-166.681-102.617-195.228H653.789V269.968H447.871l13.574-37.255h150.3V211.087H469.324l11.815-32.439h172.65V157.021H571.941V129.39h81.848V107.764H561.128a10.808,10.808,0,0,0-10.813,10.813v38.444H473.57a10.814,10.814,0,0,0-10.157,7.108l-38.56,105.832h-33.73V248.335H414.7V226.708H380.31A10.817,10.817,0,0,0,369.5,237.521v32.439H353.306V209.89a10.813,10.813,0,0,0-10.813-10.813H304.445V220.7H331.68v49.257H304.445a10.812,10.812,0,0,0-10.813,10.813c0,4.441,1.276,107.584,107.432,218.865-6.113,3.028-13.2,4.909-22.715,4.909-20.336,0-29.765-8.341-41.7-18.909C323.75,474.228,309.138,461.3,280.6,461.3s-43.137,12.932-56.027,24.344c-11.931,10.568-21.367,18.909-41.7,18.909-20.35,0-29.787-8.348-41.732-18.916-12.9-11.4-27.516-24.337-56.063-24.337S41.923,474.228,29.02,485.633C21.2,492.539,14.415,498.443,5,501.744Zm80.068,42.15c28.547,0,43.159,12.932,56.063,24.337,11.945,10.568,21.381,18.916,41.732,18.916,20.329,0,29.765-8.341,41.7-18.909,12.889-11.411,27.494-24.344,56.027-24.344s43.152,12.932,56.048,24.344c11.938,10.568,21.367,18.909,41.7,18.909s29.765-8.348,41.7-18.909c12.889-11.411,27.494-24.344,56.019-24.344s43.137,12.932,56.027,24.344c11.93,10.568,21.352,18.909,41.674,18.909s29.765-8.341,41.7-18.909c9.912-8.759,20.891-18.361,38.329-22.376v22.463c-9.4,3.294-16.184,9.191-23.976,16.1-12.889,11.411-27.5,24.344-56.034,24.344s-43.123-12.932-56.012-24.344c-11.931-10.568-21.36-18.909-41.688-18.909s-29.751,8.34-41.688,18.909c-12.889,11.411-27.5,24.344-56.034,24.344s-43.137-12.932-56.034-24.337c-11.938-10.568-21.374-18.916-41.717-18.916s-29.758,8.34-41.7,18.909c-12.889,11.411-27.494,24.344-56.027,24.344s-43.159-12.932-56.063-24.337c-11.945-10.568-21.381-18.916-41.732-18.916S55.3,573.861,43.358,584.429c-9.9,8.759-20.884,18.354-38.336,22.369V584.342c9.415-3.3,16.2-9.206,24.005-16.112C41.909,556.826,56.521,543.894,85.068,543.894ZM234.2,460.943c-8.031-63.17-36.246-81.034-36.455-81.164a10.81,10.81,0,0,1-2.581-16.832,62.784,62.784,0,0,1,21.165-14.389c-22.686-9.847-44.255-3.669-45.358-3.338a10.771,10.771,0,0,1-9.667-1.68c-.447-.324-45-32.8-102.256,2.083a10.7,10.7,0,0,1-3.741,1.406c-7.742,1.384-16.674,4.751-19.622,7.259,1.636,1.564,6.466,3.763,11.008,4.549.31.058.62.123.923.195,6.409,1.636,63.221,16.746,85.085,43.375a10.8,10.8,0,0,1,.36,13.264,60.987,60.987,0,0,0-7.389,15.16c11.1-7.432,23.782-14.591,32.216-15.232a10.792,10.792,0,0,1,5.291.944c1.629.743,35.128,16.472,54.686,58.341-5.688,4.707-11.469,8.542-18.829,10.828-13.077-29.282-34.09-43.483-41.854-47.917-7,2.588-22.8,12.666-36.714,23.58a10.82,10.82,0,0,1-17.2-5.976c-4.282-17.835,2.4-34.9,7.49-44.521C93.012,395.617,56.946,383.809,42.687,380.1c-13.531-2.364-29.08-10.611-29.08-26.283,0-18.534,25.3-25.562,35.907-27.689,58.362-34.544,105.854-11.628,120.3-2.84,13.358-2.711,49.553-6.56,79.924,21.742a10.825,10.825,0,0,1-6.646,18.707,62.548,62.548,0,0,0-22.989,7.007c11.181,11.7,27.249,35.352,34.321,78.518A74.4,74.4,0,0,0,234.2,460.943ZM369.648,190.059h22.225v23.428H369.648Zm-38.264-29.433h22.225v23.428H331.384Zm63.2,176.918v23.428H372.359V337.543Zm56.466,0v23.428H428.825V337.543Zm56.466,0v23.428H485.291V337.543Zm56.466,0v23.428H541.758V337.543Zm34.242,0h22.225v23.428H598.224ZM178.378,73.486a63.772,63.772,0,1,0,0,90.189A63.362,63.362,0,0,0,178.378,73.486Zm-15.29,74.892a42.146,42.146,0,1,1,0-59.609A41.87,41.87,0,0,1,163.088,148.378Zm-19,82.137H122.467V197.239h21.626ZM85.3,181.841,61.776,205.363l-15.29-15.29,23.522-23.522ZM21.349,107.756H54.618v21.626H21.349ZM46.5,47.066l15.29-15.29L85.313,55.3l-15.29,15.29ZM122.488,6.639h21.626V39.907H122.488ZM182.35,55.76l23.529-23.522,15.29,15.29L197.64,71.049ZM212.4,108.845h33.261v21.626H212.4Zm-8.067,97.607-23.529-23.522,15.29-15.29,23.529,23.522Z" transform="translate(-5 -6.639)" opacity="0.2"/>
</svg>
