<svg xmlns="http://www.w3.org/2000/svg" width="60.505" height="52.174" viewBox="0 0 60.505 52.174">
  <path id="Icon_feather-phone-call" data-name="Icon feather-phone-call" d="M38.672,10.872c5.483.913,9.77,4.574,10.839,9.255M38.672,1.5C50.141,2.588,59.2,10.312,60.487,20.1M57.743,38.8v7.029A4.4,4.4,0,0,1,55.965,49.3a6.1,6.1,0,0,1-4.2,1.214,60.529,60.529,0,0,1-23.682-7.193A50.347,50.347,0,0,1,11.615,29.265,42.222,42.222,0,0,1,3.19,8.951,4.278,4.278,0,0,1,4.6,5.37,5.952,5.952,0,0,1,8.651,3.843h8.232c2.755-.023,5.1,1.7,5.488,4.03a26.555,26.555,0,0,0,1.921,6.584A4.2,4.2,0,0,1,23.058,19.4l-3.485,2.976A41.3,41.3,0,0,0,36.037,36.435l3.485-2.976a6.187,6.187,0,0,1,5.79-1.054,40.257,40.257,0,0,0,7.711,1.64C55.783,34.378,57.812,36.423,57.743,38.8Z" transform="translate(-1.665 0.135)" fill="none" stroke="#0b99d6" stroke-linecap="round" stroke-linejoin="round" stroke-width="3"/>
</svg>
