<svg id="room-2170343" xmlns="http://www.w3.org/2000/svg" width="102.504" height="96.154" viewBox="0 0 102.504 96.154">
  <path id="Path_8834" data-name="Path 8834" d="M100.5,4.113l-12.572,4.7H14.64L2.067,4.113A1.6,1.6,0,0,0,0,5.05L.144,85.78a1.659,1.659,0,0,0,2.212.513l12.452-7.773H18.43l-1.6,4.255a2.708,2.708,0,0,0-.1.954v5.609a3.205,3.205,0,0,0,3.205,3.205h.8v2.8a4.808,4.808,0,1,0,9.616,0v-2.8H52.885v2.8a4.808,4.808,0,1,0,9.616,0v-2.8h.8a3.205,3.205,0,0,0,3.205-3.205V83.729a2.693,2.693,0,0,0-.1-.954L64.9,78.521H68.11v2.4a3.205,3.205,0,0,0,3.205,3.205h8.013a3.205,3.205,0,0,0,3.205-3.205v-2.4h5.16l12.452,7.773c.721.449,2.356.329,2.356-.561V5.05C102.565,4.161,101.331,3.8,100.5,4.113ZM27.2,95.348a1.6,1.6,0,1,1-3.205,0v-2.8H27.2Zm32.1,0a1.6,1.6,0,1,1-3.205,0v-2.8H59.3ZM20.665,81.726l4.119-11.218H28.79v1.6a1.6,1.6,0,0,0,1.6,1.6h8.069a1.6,1.6,0,0,0,1.6-1.6v-1.6H43.27v1.6a1.6,1.6,0,0,0,1.6,1.6h8.013a1.6,1.6,0,0,0,1.6-1.6v-1.6h4.006l4.119,11.218ZM52.885,64.1H44.872a1.6,1.6,0,0,0-1.6,1.6v1.6H40.065V65.7a1.6,1.6,0,0,0-1.6-1.6H30.449a1.6,1.6,0,0,0-1.6,1.6v1.6H25.641v-6.41H57.693V67.3H54.488V65.7A1.6,1.6,0,0,0,52.885,64.1Zm18.43,8.013V68.905h8.013V72.11ZM86.54,75.315H82.533v-6.41A3.205,3.205,0,0,0,79.328,65.7h-2.4V63.3h4.808a1.6,1.6,0,0,0,1.434-2.316L79.16,52.967a1.6,1.6,0,0,0-1.378-.889H72.918a1.6,1.6,0,0,0-1.434.889L67.477,60.98A1.6,1.6,0,0,0,68.911,63.3h4.808v2.4h-2.4a3.205,3.205,0,0,0-3.205,3.205v6.41H63.7l-2.556-6.963a1.6,1.6,0,0,0-.232-.417V60.892a3.205,3.205,0,0,0-3.205-3.205H25.593a3.205,3.205,0,0,0-3.205,3.205v7.043a1.6,1.6,0,0,0-.232.417l-2.564,6.963H15.954v-63.3H86.6Zm-15-15.225,2.4-4.808h2.845l2.4,4.808Z" transform="translate(0 -4.002)" fill="#0b99d6"/>
  <path id="Path_8835" data-name="Path 8835" d="M39.6,32.423h5.264l.224.8a3.205,3.205,0,0,0,3.1,2.4H69.515a3.205,3.205,0,0,0,3.1-2.4l.224-.8h5.224a1.6,1.6,0,0,0,1.6-1.6V19.6a1.6,1.6,0,0,0-1.6-1.6H39.6A1.6,1.6,0,0,0,38,19.6V30.821A1.6,1.6,0,0,0,39.6,32.423ZM70.42,29.218l-.865,3.205h-21.4l-.873-3.205Z" transform="translate(-7.551 -6.783)" fill="#0b99d6"/>
</svg>
