<svg id="sunbed-3242569" xmlns="http://www.w3.org/2000/svg" width="103.561" height="96.154" viewBox="0 0 103.561 96.154">
  <g id="Group_55" data-name="Group 55">
    <g id="Group_54" data-name="Group 54">
      <path id="Path_8836" data-name="Path 8836" d="M25.783,8.476c-3.5,4.587-5.989,12.588-6.742,22.527H4.143A29.59,29.59,0,0,1,25.783,8.476ZM22.394,31c1.16-14.526,6.265-23.436,10.545-23.436S42.323,16.477,43.484,31Zm24.442,0c-.754-9.939-3.24-17.94-6.743-22.527A29.59,29.59,0,0,1,61.733,31Z" transform="translate(-4.143 -5.525)" fill="#0b99d6"/>
      <g id="Group_50" data-name="Group 50" transform="translate(27.124 28.829)">
        <path id="Path_8837" data-name="Path 8837" d="M23.663,23.53V55.665l-3.356-5.6V23.53Z" transform="translate(-20.307 -23.53)" fill="#0b99d6"/>
      </g>
      <path id="Path_8838" data-name="Path 8838" d="M91.762,62.612a5.625,5.625,0,0,1-.5,2.316H23.666L6.382,36a5.641,5.641,0,0,1,1.963-7.753,5.544,5.544,0,0,1,2.9-.805,5.6,5.6,0,0,1,4.833,2.752L31.972,56.756l.117.2H86.107A5.658,5.658,0,0,1,91.762,62.612Z" transform="translate(-3.17 7.951)" fill="#0b99d6"/>
      <path id="Path_8839" data-name="Path 8839" d="M104.047,54.974V60a1.678,1.678,0,0,1-1.678,1.678H7.634A1.678,1.678,0,0,1,5.956,60V54.974a3.2,3.2,0,0,1,3.2-3.2h91.694A3.2,3.2,0,0,1,104.047,54.974Z" transform="translate(-2.914 24.452)" fill="#0b99d6"/>
      <g id="Group_51" data-name="Group 51" transform="translate(10.377 89.492)">
        <path id="Path_8840" data-name="Path 8840" d="M20.58,59.68v5.068a1.6,1.6,0,0,1-1.594,1.594H11.921a1.593,1.593,0,0,1-1.594-1.594V59.68Z" transform="translate(-10.327 -59.68)" fill="#0b99d6"/>
        <path id="Path_8841" data-name="Path 8841" d="M64.2,59.68v5.068a1.608,1.608,0,0,1-1.611,1.594H55.521a1.6,1.6,0,0,1-1.594-1.594V59.68Z" transform="translate(19.237 -59.68)" fill="#0b99d6"/>
      </g>
      <g id="Group_53" data-name="Group 53" transform="translate(66.71)">
        <g id="Group_52" data-name="Group 52">
          <path id="Path_8842" data-name="Path 8842" d="M47.79,19.686H45.575a1.678,1.678,0,0,1,0-3.356H47.79a1.678,1.678,0,0,1,0,3.356Z" transform="translate(-43.897 0.417)" fill="#0b99d6"/>
          <path id="Path_8843" data-name="Path 8843" d="M51.242,22.948a1.671,1.671,0,0,1,0,2.366l-1.561,1.561a1.673,1.673,0,0,1-2.366-2.366l1.561-1.561A1.671,1.671,0,0,1,51.242,22.948Z" transform="translate(-41.912 4.572)" fill="#0b99d6"/>
          <path id="Path_8844" data-name="Path 8844" d="M57.233,26.678v2.2a1.678,1.678,0,1,1-3.356,0v-2.2a1.678,1.678,0,1,1,3.356,0Z" transform="translate(-37.13 6.296)" fill="#0b99d6"/>
          <path id="Path_8845" data-name="Path 8845" d="M53.877,10.226v-2.2a1.678,1.678,0,1,1,3.356,0v2.2a1.678,1.678,0,1,1-3.356,0Z" transform="translate(-37.13 -6.35)" fill="#0b99d6"/>
          <path id="Path_8846" data-name="Path 8846" d="M47.315,12.134a1.673,1.673,0,1,1,2.366-2.366l1.561,1.544A1.679,1.679,0,1,1,48.876,13.7Z" transform="translate(-41.912 -4.365)" fill="#0b99d6"/>
          <path id="Path_8847" data-name="Path 8847" d="M64.437,24.509a1.671,1.671,0,0,1,0,2.366,1.7,1.7,0,0,1-2.383,0l-1.544-1.561a1.642,1.642,0,0,1,0-2.366,1.671,1.671,0,0,1,2.366,0Z" transform="translate(-32.973 4.572)" fill="#0b99d6"/>
          <path id="Path_8848" data-name="Path 8848" d="M60.51,13.7a1.662,1.662,0,0,1,0-2.383l1.544-1.544a1.691,1.691,0,0,1,2.383,0,1.671,1.671,0,0,1,0,2.366L62.876,13.7A1.681,1.681,0,0,1,60.51,13.7Z" transform="translate(-32.973 -4.365)" fill="#0b99d6"/>
          <path id="Path_8849" data-name="Path 8849" d="M68.913,21.361a9.993,9.993,0,1,1-9.985-10A9.994,9.994,0,0,1,68.913,21.361Z" transform="translate(-40.486 -2.953)" fill="#0b99d6"/>
          <path id="Path_8850" data-name="Path 8850" d="M68.1,18.008a1.683,1.683,0,0,1-1.678,1.678h-2.2a1.678,1.678,0,0,1,0-3.356h2.2A1.683,1.683,0,0,1,68.1,18.008Z" transform="translate(-31.251 0.417)" fill="#0b99d6"/>
        </g>
      </g>
    </g>
  </g>
</svg>
