<svg id="toilet-4950888" xmlns="http://www.w3.org/2000/svg" width="167.598" height="78.563" viewBox="0 0 167.598 78.563">
  <path id="Path_8854" data-name="Path 8854" d="M59.865,107.942a1.105,1.105,0,0,0,1.1-1.1V30.485a1.1,1.1,0,0,0-2.209,0v76.353a1.105,1.105,0,0,0,1.1,1.1Z" transform="translate(41.715 -29.38)" fill="#0b99d6"/>
  <path id="Path_8855" data-name="Path 8855" d="M29.875,107.942a1.105,1.105,0,0,0,1.1-1.1V30.485a1.1,1.1,0,0,0-2.209,0v76.353a1.105,1.105,0,0,0,1.1,1.1Z" transform="translate(14.588 -29.38)" fill="#0b99d6"/>
  <g id="Group_56" data-name="Group 56" transform="translate(110.912 1.143)">
    <circle id="Ellipse_3" data-name="Ellipse 3" cx="8.551" cy="8.551" r="8.551" transform="translate(13.77)" fill="#0b99d6"/>
    <path id="Path_8856" data-name="Path 8856" d="M113.811,90.326l-6.38-24.759a2.728,2.728,0,0,0-2.647-2.057H92.538L91.49,57.092H102.8a4.114,4.114,0,1,0,0-8.228H90.138L90,48.045a9.076,9.076,0,0,0-9.447-7.6h0a9.089,9.089,0,0,0-8.113,12.075l6.533,18.645a2.731,2.731,0,0,0,2.59,1.828H99.432l5.618,19.693a4.541,4.541,0,0,0,5.542,3.143h0a4.552,4.552,0,0,0,3.238-5.523Z" transform="translate(-57.285 -20.525)" fill="#0b99d6"/>
    <path id="Path_8857" data-name="Path 8857" d="M99.645,77.811A16.365,16.365,0,0,1,88.237,82.4a16.66,16.66,0,0,1-11.656-4.818,16.4,16.4,0,0,1-4.818-11.656,16.1,16.1,0,0,1,4.514-11.332,3.759,3.759,0,1,0-5.447-5.18,24.033,24.033,0,0,0-4.7,25.864A23.507,23.507,0,0,0,71.268,82.9a24.023,24.023,0,0,0,7.618,5.142,24.024,24.024,0,0,0,25.978-4.818,3.758,3.758,0,1,0-5.2-5.428Z" transform="translate(-64.24 -13.457)" fill="#0b99d6"/>
  </g>
  <g id="Group_57" data-name="Group 57" transform="translate(56.207 1.143)">
    <path id="Path_8858" data-name="Path 8858" d="M70.89,70.527,65.805,47.158a8.679,8.679,0,0,0-8.456-6.818H49.14a8.679,8.679,0,0,0-8.456,6.818L35.6,70.527a3.624,3.624,0,0,0,.724,3.066,3.688,3.688,0,0,0,2.857,1.371H43.2a1.2,1.2,0,0,1,1.181.952l3.695,16.627a5.308,5.308,0,0,0,10.361,0l3.695-16.627a1.2,1.2,0,0,1,1.181-.952h4.019a3.657,3.657,0,0,0,2.857-1.371,3.562,3.562,0,0,0,.724-3.066Z" transform="translate(-35.517 -20.609)" fill="#0b99d6"/>
    <circle id="Ellipse_4" data-name="Ellipse 4" cx="8.551" cy="8.551" r="8.551" transform="translate(9.186)" fill="#0b99d6"/>
  </g>
  <g id="Group_58" data-name="Group 58" transform="translate(0 1.143)">
    <path id="Path_8859" data-name="Path 8859" d="M39.116,43.264a6.644,6.644,0,0,0-5.523-2.914H12.719a6.705,6.705,0,0,0-6.247,9.123L16.757,76.232a1.118,1.118,0,0,1,.076.438V90.382a6.323,6.323,0,1,0,12.646,0V76.67a1.117,1.117,0,0,1,.076-.438L39.84,49.473a6.675,6.675,0,0,0-.724-6.209Z" transform="translate(-6.005 -20.6)" fill="#0b99d6"/>
    <circle id="Ellipse_5" data-name="Ellipse 5" cx="8.551" cy="8.551" r="8.551" transform="translate(8.6)" fill="#0b99d6"/>
  </g>
</svg>
